<?xml version="1.0" encoding="utf-8" standalone="no"?>
<!DOCTYPE svg PUBLIC "-//W3C//DTD SVG 1.1//EN"
  "http://www.w3.org/Graphics/SVG/1.1/DTD/svg11.dtd">
<svg xmlns:xlink="http://www.w3.org/1999/xlink" width="496.255pt" height="279.38pt" viewBox="0 0 496.255 279.38" xmlns="http://www.w3.org/2000/svg" version="1.1">
 <metadata>
  <rdf:RDF xmlns:dc="http://purl.org/dc/elements/1.1/" xmlns:cc="http://creativecommons.org/ns#" xmlns:rdf="http://www.w3.org/1999/02/22-rdf-syntax-ns#">
   <cc:Work>
    <dc:type rdf:resource="http://purl.org/dc/dcmitype/StillImage"/>
    <dc:date>2025-05-08T21:15:21.888327</dc:date>
    <dc:format>image/svg+xml</dc:format>
    <dc:creator>
     <cc:Agent>
      <dc:title>Matplotlib v3.10.0, https://matplotlib.org/</dc:title>
     </cc:Agent>
    </dc:creator>
   </cc:Work>
  </rdf:RDF>
 </metadata>
 <defs>
  <style type="text/css">*{stroke-linejoin: round; stroke-linecap: butt}</style>
 </defs>
 <g id="figure_1">
  <g id="patch_1">
   <path d="M 0 279.38 
L 496.255 279.38 
L 496.255 0 
L 0 0 
L 0 279.38 
z
" style="fill: none"/>
  </g>
  <g id="axes_1">
   <g id="patch_2">
    <path d="M 41.325 244.93 
L 489.055 244.93 
L 489.055 21.45 
L 41.325 21.45 
L 41.325 244.93 
z
" style="fill: none"/>
   </g>
   <g id="FillBetweenPolyCollection_1">
    <path d="M -126.504012 244.716747 
L -126.504012 244.93 
L -122.567389 244.93 
L -118.630766 244.93 
L -114.694143 244.93 
L -110.757519 244.93 
L -106.820896 244.93 
L -102.884273 244.93 
L -98.94765 244.93 
L -95.011026 244.93 
L -91.074403 244.93 
L -87.13778 244.93 
L -83.201157 244.93 
L -79.264533 244.93 
L -75.32791 244.93 
L -71.391287 244.93 
L -67.454664 244.93 
L -63.518041 244.93 
L -59.581417 244.93 
L -55.644794 244.93 
L -51.708171 244.93 
L -47.771548 244.93 
L -43.834924 244.93 
L -39.898301 244.93 
L -35.961678 244.93 
L -32.025055 244.93 
L -28.088431 244.93 
L -24.151808 244.93 
L -20.215185 244.93 
L -16.278562 244.93 
L -12.341938 244.93 
L -8.405315 244.93 
L -4.468692 244.93 
L -0.532069 244.93 
L 3.404555 244.93 
L 7.341178 244.93 
L 11.277801 244.93 
L 15.214424 244.93 
L 19.151048 244.93 
L 23.087671 244.93 
L 27.024294 244.93 
L 30.960917 244.93 
L 34.89754 244.93 
L 38.834164 244.93 
L 42.770787 244.93 
L 46.70741 244.93 
L 50.644033 244.93 
L 54.580657 244.93 
L 58.51728 244.93 
L 62.453903 244.93 
L 66.390526 244.93 
L 70.32715 244.93 
L 74.263773 244.93 
L 78.200396 244.93 
L 82.137019 244.93 
L 86.073643 244.93 
L 90.010266 244.93 
L 93.946889 244.93 
L 97.883512 244.93 
L 101.820136 244.93 
L 105.756759 244.93 
L 109.693382 244.93 
L 113.630005 244.93 
L 117.566629 244.93 
L 121.503252 244.93 
L 125.439875 244.93 
L 129.376498 244.93 
L 133.313121 244.93 
L 137.249745 244.93 
L 141.186368 244.93 
L 145.122991 244.93 
L 149.059614 244.93 
L 152.996238 244.93 
L 156.932861 244.93 
L 160.869484 244.93 
L 164.806107 244.93 
L 168.742731 244.93 
L 172.679354 244.93 
L 176.615977 244.93 
L 180.5526 244.93 
L 184.489224 244.93 
L 188.425847 244.93 
L 192.36247 244.93 
L 196.299093 244.93 
L 200.235717 244.93 
L 204.17234 244.93 
L 208.108963 244.93 
L 212.045586 244.93 
L 215.98221 244.93 
L 219.918833 244.93 
L 223.855456 244.93 
L 227.792079 244.93 
L 231.728702 244.93 
L 235.665326 244.93 
L 239.601949 244.93 
L 243.538572 244.93 
L 247.475195 244.93 
L 251.411819 244.93 
L 255.348442 244.93 
L 259.285065 244.93 
L 263.221688 244.93 
L 267.158312 244.93 
L 271.094935 244.93 
L 275.031558 244.93 
L 278.968181 244.93 
L 282.904805 244.93 
L 286.841428 244.93 
L 290.778051 244.93 
L 294.714674 244.93 
L 298.651298 244.93 
L 302.587921 244.93 
L 306.524544 244.93 
L 310.461167 244.93 
L 314.39779 244.93 
L 318.334414 244.93 
L 322.271037 244.93 
L 326.20766 244.93 
L 330.144283 244.93 
L 334.080907 244.93 
L 338.01753 244.93 
L 341.954153 244.93 
L 345.890776 244.93 
L 349.8274 244.93 
L 353.764023 244.93 
L 357.700646 244.93 
L 361.637269 244.93 
L 365.573893 244.93 
L 369.510516 244.93 
L 373.447139 244.93 
L 377.383762 244.93 
L 381.320386 244.93 
L 385.257009 244.93 
L 389.193632 244.93 
L 393.130255 244.93 
L 397.066879 244.93 
L 401.003502 244.93 
L 404.940125 244.93 
L 408.876748 244.93 
L 412.813371 244.93 
L 416.749995 244.93 
L 420.686618 244.93 
L 424.623241 244.93 
L 428.559864 244.93 
L 432.496488 244.93 
L 436.433111 244.93 
L 440.369734 244.93 
L 444.306357 244.93 
L 448.242981 244.93 
L 452.179604 244.93 
L 456.116227 244.93 
L 460.05285 244.93 
L 463.989474 244.93 
L 467.926097 244.93 
L 471.86272 244.93 
L 475.799343 244.93 
L 479.735967 244.93 
L 483.67259 244.93 
L 487.609213 244.93 
L 491.545836 244.93 
L 495.48246 244.93 
L 499.419083 244.93 
L 503.355706 244.93 
L 507.292329 244.93 
L 511.228952 244.93 
L 515.165576 244.93 
L 519.102199 244.93 
L 523.038822 244.93 
L 526.975445 244.93 
L 530.912069 244.93 
L 534.848692 244.93 
L 538.785315 244.93 
L 542.721938 244.93 
L 546.658562 244.93 
L 550.595185 244.93 
L 554.531808 244.93 
L 558.468431 244.93 
L 562.405055 244.93 
L 566.341678 244.93 
L 570.278301 244.93 
L 574.214924 244.93 
L 578.151548 244.93 
L 582.088171 244.93 
L 586.024794 244.93 
L 589.961417 244.93 
L 593.898041 244.93 
L 597.834664 244.93 
L 601.771287 244.93 
L 605.70791 244.93 
L 609.644533 244.93 
L 613.581157 244.93 
L 617.51778 244.93 
L 621.454403 244.93 
L 625.391026 244.93 
L 629.32765 244.93 
L 633.264273 244.93 
L 637.200896 244.93 
L 641.137519 244.93 
L 645.074143 244.93 
L 649.010766 244.93 
L 652.947389 244.93 
L 656.884012 244.93 
L 656.884012 243.835875 
L 656.884012 243.835875 
L 652.947389 243.609428 
L 649.010766 243.34218 
L 645.074143 243.028099 
L 641.137519 242.66052 
L 637.200896 242.232133 
L 633.264273 241.734968 
L 629.32765 241.160401 
L 625.391026 240.499167 
L 621.454403 239.741385 
L 617.51778 238.876602 
L 613.581157 237.893855 
L 609.644533 236.781743 
L 605.70791 235.528526 
L 601.771287 234.122236 
L 597.834664 232.550808 
L 593.898041 230.802234 
L 589.961417 228.864723 
L 586.024794 226.726887 
L 582.088171 224.377928 
L 578.151548 221.807844 
L 574.214924 219.007637 
L 570.278301 215.969518 
L 566.341678 212.687118 
L 562.405055 209.15569 
L 558.468431 205.372292 
L 554.531808 201.335965 
L 550.595185 197.047881 
L 546.658562 192.511472 
L 542.721938 187.732528 
L 538.785315 182.719262 
L 534.848692 177.482347 
L 530.912069 172.034905 
L 526.975445 166.392475 
L 523.038822 160.572932 
L 519.102199 154.596379 
L 515.165576 148.485004 
L 511.228952 142.2629 
L 507.292329 135.955872 
L 503.355706 129.591211 
L 499.419083 123.197449 
L 495.48246 116.804109 
L 491.545836 110.44144 
L 487.609213 104.140149 
L 483.67259 97.93113 
L 479.735967 91.845204 
L 475.799343 85.912861 
L 471.86272 80.164006 
L 467.926097 74.62773 
L 463.989474 69.33208 
L 460.05285 64.303848 
L 456.116227 59.568373 
L 452.179604 55.149356 
L 448.242981 51.068685 
L 444.306357 47.346272 
L 440.369734 43.999901 
L 436.433111 41.045093 
L 432.496488 38.494966 
L 428.559864 36.360124 
L 424.623241 34.648544 
L 420.686618 33.365483 
L 416.749995 32.513403 
L 412.813371 32.091905 
L 408.876748 32.09769 
L 404.940125 32.524548 
L 401.003502 33.363362 
L 397.066879 34.602154 
L 393.130255 36.226159 
L 389.193632 38.21793 
L 385.257009 40.557486 
L 381.320386 43.222495 
L 377.383762 46.188486 
L 373.447139 49.429108 
L 369.510516 52.916411 
L 365.573893 56.62116 
L 361.637269 60.51317 
L 357.700646 64.561663 
L 353.764023 68.73563 
L 349.8274 73.004206 
L 345.890776 77.337038 
L 341.954153 81.704641 
L 338.01753 86.078747 
L 334.080907 90.432616 
L 330.144283 94.741337 
L 326.20766 98.982073 
L 322.271037 103.134288 
L 318.334414 107.179913 
L 314.39779 111.103484 
L 310.461167 114.892219 
L 306.524544 118.536061 
L 302.587921 122.027672 
L 298.651298 125.36238 
L 294.714674 128.53809 
L 290.778051 131.555162 
L 286.841428 134.416243 
L 282.904805 137.126086 
L 278.968181 139.691333 
L 275.031558 142.120288 
L 271.094935 144.422668 
L 267.158312 146.60935 
L 263.221688 148.69211 
L 259.285065 150.68336 
L 255.348442 152.595894 
L 251.411819 154.442632 
L 247.475195 156.236381 
L 243.538572 157.989604 
L 239.601949 159.714207 
L 235.665326 161.421344 
L 231.728702 163.12124 
L 227.792079 164.823034 
L 223.855456 166.534651 
L 219.918833 168.262693 
L 215.98221 170.012361 
L 212.045586 171.787393 
L 208.108963 173.590045 
L 204.17234 175.421086 
L 200.235717 177.279826 
L 196.299093 179.164171 
L 192.36247 181.070703 
L 188.425847 182.994787 
L 184.489224 184.930698 
L 180.5526 186.871771 
L 176.615977 188.810571 
L 172.679354 190.73907 
L 168.742731 192.648847 
L 164.806107 194.531285 
L 160.869484 196.377777 
L 156.932861 198.179928 
L 152.996238 199.92975 
L 149.059614 201.619849 
L 145.122991 203.243595 
L 141.186368 204.795274 
L 137.249745 206.270216 
L 133.313121 207.664899 
L 129.376498 208.977024 
L 125.439875 210.205557 
L 121.503252 211.350747 
L 117.566629 212.414108 
L 113.630005 213.398369 
L 109.693382 214.307402 
L 105.756759 215.146118 
L 101.820136 215.920343 
L 97.883512 216.636671 
L 93.946889 217.302305 
L 90.010266 217.924886 
L 86.073643 218.512313 
L 82.137019 219.072566 
L 78.200396 219.613529 
L 74.263773 220.142821 
L 70.32715 220.667641 
L 66.390526 221.194626 
L 62.453903 221.729727 
L 58.51728 222.278111 
L 54.580657 222.844082 
L 50.644033 223.431027 
L 46.70741 224.041385 
L 42.770787 224.676643 
L 38.834164 225.337355 
L 34.89754 226.023176 
L 30.960917 226.732927 
L 27.024294 227.464666 
L 23.087671 228.215777 
L 19.151048 228.983072 
L 15.214424 229.762894 
L 11.277801 230.551231 
L 7.341178 231.343828 
L 3.404555 232.136297 
L -0.532069 232.924219 
L -4.468692 233.703248 
L -8.405315 234.469197 
L -12.341938 235.218117 
L -16.278562 235.946365 
L -20.215185 236.650657 
L -24.151808 237.328112 
L -28.088431 237.97628 
L -32.025055 238.593157 
L -35.961678 239.177193 
L -39.898301 239.727286 
L -43.834924 240.242767 
L -47.771548 240.723377 
L -51.708171 241.169237 
L -55.644794 241.580815 
L -59.581417 241.958888 
L -63.518041 242.304498 
L -67.454664 242.618916 
L -71.391287 242.903592 
L -75.32791 243.160122 
L -79.264533 243.390204 
L -83.201157 243.595604 
L -87.13778 243.778123 
L -91.074403 243.939565 
L -95.011026 244.081711 
L -98.94765 244.206301 
L -102.884273 244.315011 
L -106.820896 244.409439 
L -110.757519 244.491095 
L -114.694143 244.561394 
L -118.630766 244.621647 
L -122.567389 244.673063 
L -126.504012 244.716747 
z
" clip-path="url(#p3e0692cc33)" style="fill: #1f77b4; fill-opacity: 0.45; stroke: #1f77b4; stroke-width: 1.8"/>
   </g>
   <g id="FillBetweenPolyCollection_2">
    <path d="M -93.257203 243.16453 
L -93.257203 244.93 
L -89.654718 244.93 
L -86.052234 244.93 
L -82.44975 244.93 
L -78.847265 244.93 
L -75.244781 244.93 
L -71.642296 244.93 
L -68.039812 244.93 
L -64.437327 244.93 
L -60.834843 244.93 
L -57.232358 244.93 
L -53.629874 244.93 
L -50.027389 244.93 
L -46.424905 244.93 
L -42.822421 244.93 
L -39.219936 244.93 
L -35.617452 244.93 
L -32.014967 244.93 
L -28.412483 244.93 
L -24.809998 244.93 
L -21.207514 244.93 
L -17.605029 244.93 
L -14.002545 244.93 
L -10.400061 244.93 
L -6.797576 244.93 
L -3.195092 244.93 
L 0.407393 244.93 
L 4.009877 244.93 
L 7.612362 244.93 
L 11.214846 244.93 
L 14.817331 244.93 
L 18.419815 244.93 
L 22.0223 244.93 
L 25.624784 244.93 
L 29.227268 244.93 
L 32.829753 244.93 
L 36.432237 244.93 
L 40.034722 244.93 
L 43.637206 244.93 
L 47.239691 244.93 
L 50.842175 244.93 
L 54.44466 244.93 
L 58.047144 244.93 
L 61.649629 244.93 
L 65.252113 244.93 
L 68.854597 244.93 
L 72.457082 244.93 
L 76.059566 244.93 
L 79.662051 244.93 
L 83.264535 244.93 
L 86.86702 244.93 
L 90.469504 244.93 
L 94.071989 244.93 
L 97.674473 244.93 
L 101.276957 244.93 
L 104.879442 244.93 
L 108.481926 244.93 
L 112.084411 244.93 
L 115.686895 244.93 
L 119.28938 244.93 
L 122.891864 244.93 
L 126.494349 244.93 
L 130.096833 244.93 
L 133.699318 244.93 
L 137.301802 244.93 
L 140.904286 244.93 
L 144.506771 244.93 
L 148.109255 244.93 
L 151.71174 244.93 
L 155.314224 244.93 
L 158.916709 244.93 
L 162.519193 244.93 
L 166.121678 244.93 
L 169.724162 244.93 
L 173.326646 244.93 
L 176.929131 244.93 
L 180.531615 244.93 
L 184.1341 244.93 
L 187.736584 244.93 
L 191.339069 244.93 
L 194.941553 244.93 
L 198.544038 244.93 
L 202.146522 244.93 
L 205.749007 244.93 
L 209.351491 244.93 
L 212.953975 244.93 
L 216.55646 244.93 
L 220.158944 244.93 
L 223.761429 244.93 
L 227.363913 244.93 
L 230.966398 244.93 
L 234.568882 244.93 
L 238.171367 244.93 
L 241.773851 244.93 
L 245.376336 244.93 
L 248.97882 244.93 
L 252.581304 244.93 
L 256.183789 244.93 
L 259.786273 244.93 
L 263.388758 244.93 
L 266.991242 244.93 
L 270.593727 244.93 
L 274.196211 244.93 
L 277.798696 244.93 
L 281.40118 244.93 
L 285.003664 244.93 
L 288.606149 244.93 
L 292.208633 244.93 
L 295.811118 244.93 
L 299.413602 244.93 
L 303.016087 244.93 
L 306.618571 244.93 
L 310.221056 244.93 
L 313.82354 244.93 
L 317.426025 244.93 
L 321.028509 244.93 
L 324.630993 244.93 
L 328.233478 244.93 
L 331.835962 244.93 
L 335.438447 244.93 
L 339.040931 244.93 
L 342.643416 244.93 
L 346.2459 244.93 
L 349.848385 244.93 
L 353.450869 244.93 
L 357.053354 244.93 
L 360.655838 244.93 
L 364.258322 244.93 
L 367.860807 244.93 
L 371.463291 244.93 
L 375.065776 244.93 
L 378.66826 244.93 
L 382.270745 244.93 
L 385.873229 244.93 
L 389.475714 244.93 
L 393.078198 244.93 
L 396.680682 244.93 
L 400.283167 244.93 
L 403.885651 244.93 
L 407.488136 244.93 
L 411.09062 244.93 
L 414.693105 244.93 
L 418.295589 244.93 
L 421.898074 244.93 
L 425.500558 244.93 
L 429.103043 244.93 
L 432.705527 244.93 
L 436.308011 244.93 
L 439.910496 244.93 
L 443.51298 244.93 
L 447.115465 244.93 
L 450.717949 244.93 
L 454.320434 244.93 
L 457.922918 244.93 
L 461.525403 244.93 
L 465.127887 244.93 
L 468.730371 244.93 
L 472.332856 244.93 
L 475.93534 244.93 
L 479.537825 244.93 
L 483.140309 244.93 
L 486.742794 244.93 
L 490.345278 244.93 
L 493.947763 244.93 
L 497.550247 244.93 
L 501.152732 244.93 
L 504.755216 244.93 
L 508.3577 244.93 
L 511.960185 244.93 
L 515.562669 244.93 
L 519.165154 244.93 
L 522.767638 244.93 
L 526.370123 244.93 
L 529.972607 244.93 
L 533.575092 244.93 
L 537.177576 244.93 
L 540.780061 244.93 
L 544.382545 244.93 
L 547.985029 244.93 
L 551.587514 244.93 
L 555.189998 244.93 
L 558.792483 244.93 
L 562.394967 244.93 
L 565.997452 244.93 
L 569.599936 244.93 
L 573.202421 244.93 
L 576.804905 244.93 
L 580.407389 244.93 
L 584.009874 244.93 
L 587.612358 244.93 
L 591.214843 244.93 
L 594.817327 244.93 
L 598.419812 244.93 
L 602.022296 244.93 
L 605.624781 244.93 
L 609.227265 244.93 
L 612.82975 244.93 
L 616.432234 244.93 
L 620.034718 244.93 
L 623.637203 244.93 
L 623.637203 243.449694 
L 623.637203 243.449694 
L 620.034718 243.109489 
L 616.432234 242.701956 
L 612.82975 242.216418 
L 609.227265 241.641096 
L 605.624781 240.963122 
L 602.022296 240.168586 
L 598.419812 239.242608 
L 594.817327 238.169472 
L 591.214843 236.932782 
L 587.612358 235.515689 
L 584.009874 233.901155 
L 580.407389 232.072279 
L 576.804905 230.012668 
L 573.202421 227.706858 
L 569.599936 225.140785 
L 565.997452 222.302282 
L 562.394967 219.181606 
L 558.792483 215.771976 
L 555.189998 212.07011 
L 551.587514 208.076737 
L 547.985029 203.797075 
L 544.382545 199.241248 
L 540.780061 194.424623 
L 537.177576 189.36805 
L 533.575092 184.097981 
L 529.972607 178.646464 
L 526.370123 173.050984 
L 522.767638 167.354147 
L 519.165154 161.603211 
L 515.562669 155.849458 
L 511.960185 150.147405 
L 508.3577 144.553892 
L 504.755216 139.127035 
L 501.152732 133.925094 
L 497.550247 129.005266 
L 493.947763 124.422452 
L 490.345278 120.228022 
L 486.742794 116.46862 
L 483.140309 113.18505 
L 479.537825 110.411277 
L 475.93534 108.17357 
L 472.332856 106.489837 
L 468.730371 105.369145 
L 465.127887 104.811476 
L 461.525403 104.807704 
L 457.922918 105.3398 
L 454.320434 106.381278 
L 450.717949 107.897835 
L 447.115465 109.848195 
L 443.51298 112.18511 
L 439.910496 114.856495 
L 436.308011 117.806651 
L 432.705527 120.977546 
L 429.103043 124.310114 
L 425.500558 127.745517 
L 421.898074 131.226352 
L 418.295589 134.697764 
L 414.693105 138.108425 
L 411.09062 141.411369 
L 407.488136 144.564668 
L 403.885651 147.53192 
L 400.283167 150.282572 
L 396.680682 152.792062 
L 393.078198 155.041797 
L 389.475714 157.018984 
L 385.873229 158.716328 
L 382.270745 160.131626 
L 378.66826 161.267276 
L 375.065776 162.129728 
L 371.463291 162.728913 
L 367.860807 163.077655 
L 364.258322 163.191105 
L 360.655838 163.086214 
L 357.053354 162.781253 
L 353.450869 162.295396 
L 349.848385 161.648378 
L 346.2459 160.860226 
L 342.643416 159.951055 
L 339.040931 158.940944 
L 335.438447 157.84986 
L 331.835962 156.697634 
L 328.233478 155.503971 
L 324.630993 154.288482 
L 321.028509 153.070721 
L 317.426025 151.87021 
L 313.82354 150.706452 
L 310.221056 149.598901 
L 306.618571 148.566908 
L 303.016087 147.629604 
L 299.413602 146.805755 
L 295.811118 146.113557 
L 292.208633 145.570401 
L 288.606149 145.192595 
L 285.003664 144.995075 
L 281.40118 144.991086 
L 277.798696 145.191881 
L 274.196211 145.606425 
L 270.593727 146.241123 
L 266.991242 147.09959 
L 263.388758 148.18247 
L 259.786273 149.487309 
L 256.183789 151.00849 
L 252.581304 152.737228 
L 248.97882 154.661641 
L 245.376336 156.766865 
L 241.773851 159.035234 
L 238.171367 161.446505 
L 234.568882 163.978116 
L 230.966398 166.605474 
L 227.363913 169.302255 
L 223.761429 172.04071 
L 220.158944 174.791964 
L 216.55646 177.526306 
L 212.953975 180.213445 
L 209.351491 182.822762 
L 205.749007 185.323521 
L 202.146522 187.685063 
L 198.544038 189.876978 
L 194.941553 191.869271 
L 191.339069 193.632512 
L 187.736584 195.137997 
L 184.1341 196.357926 
L 180.531615 197.265601 
L 176.929131 197.835663 
L 173.326646 198.044367 
L 169.724162 197.869908 
L 166.121678 197.292799 
L 162.519193 196.296293 
L 158.916709 194.866857 
L 155.314224 192.994681 
L 151.71174 190.674211 
L 148.109255 187.904692 
L 144.506771 184.690701 
L 140.904286 181.042644 
L 137.301802 176.977203 
L 133.699318 172.517695 
L 130.096833 167.69433 
L 126.494349 162.544332 
L 122.891864 157.111917 
L 119.28938 151.448095 
L 115.686895 145.610297 
L 112.084411 139.661805 
L 108.481926 133.671002 
L 104.879442 127.710429 
L 101.276957 121.855687 
L 97.674473 116.184172 
L 94.071989 110.773708 
L 90.469504 105.701079 
L 86.86702 101.04052 
L 83.264535 96.862201 
L 79.662051 93.230749 
L 76.059566 90.203853 
L 72.457082 87.830999 
L 68.854597 86.152368 
L 65.252113 85.197948 
L 61.649629 84.986867 
L 58.047144 85.526992 
L 54.44466 86.814793 
L 50.842175 88.835478 
L 47.239691 91.563406 
L 43.637206 94.962746 
L 40.034722 98.988373 
L 36.432237 103.586966 
L 32.829753 108.69828 
L 29.227268 114.256531 
L 25.624784 120.191878 
L 22.0223 126.431936 
L 18.419815 132.90328 
L 14.817331 139.532907 
L 11.214846 146.249605 
L 7.612362 152.985202 
L 4.009877 159.675667 
L 0.407393 166.262038 
L -3.195092 172.691163 
L -6.797576 178.916256 
L -10.400061 184.897254 
L -14.002545 190.600987 
L -17.605029 196.001174 
L -21.207514 201.078264 
L -24.809998 205.819126 
L -28.412483 210.216634 
L -32.014967 214.26915 
L -35.617452 217.97994 
L -39.219936 221.356548 
L -42.822421 224.41014 
L -46.424905 227.154851 
L -50.027389 229.607147 
L -53.629874 231.785215 
L -57.232358 233.708402 
L -60.834843 235.396701 
L -64.437327 236.870298 
L -68.039812 238.149185 
L -71.642296 239.252829 
L -75.244781 240.199913 
L -78.847265 241.008129 
L -82.44975 241.694029 
L -86.052234 242.272931 
L -89.654718 242.758858 
L -93.257203 243.16453 
z
" clip-path="url(#p3e0692cc33)" style="fill: #ff7f0e; fill-opacity: 0.45; stroke: #ff7f0e; stroke-width: 1.8"/>
   </g>
   <g id="matplotlib.axis_1">
    <g id="xtick_1">
     <g id="line2d_1">
      <defs>
       <path id="m5b43a4d000" d="M 0 0 
L 0 3.5 
" style="stroke: #ffffff; stroke-width: 0.8"/>
      </defs>
      <g>
       <use xlink:href="#m5b43a4d000" x="61.676364" y="244.93" style="fill: #ffffff; stroke: #ffffff; stroke-width: 0.8"/>
      </g>
     </g>
     <g id="text_1">
      <!-- 0.0 -->
      <g style="fill: #ffffff" transform="translate(54.176364 258.805) scale(0.1 -0.1)">
       <defs>
        <path id="SimHei-30" d="M 225 2537 
Q 250 3200 412 3587 
Q 575 3975 875 4225 
Q 1175 4475 1612 4475 
Q 2050 4475 2375 4112 
Q 2700 3750 2800 3200 
Q 2900 2650 2862 1937 
Q 2825 1225 2612 775 
Q 2400 325 1975 150 
Q 1550 -25 1125 187 
Q 700 400 525 750 
Q 350 1100 275 1487 
Q 200 1875 225 2537 
z
M 750 2687 
Q 675 2000 800 1462 
Q 925 925 1212 700 
Q 1500 475 1800 612 
Q 2100 750 2237 1162 
Q 2375 1575 2375 2062 
Q 2375 2550 2337 2950 
Q 2300 3350 2112 3675 
Q 1925 4000 1612 4012 
Q 1300 4025 1062 3700 
Q 825 3375 750 2687 
z
" transform="scale(0.015625)"/>
        <path id="SimHei-2e" d="M 1075 125 
L 500 125 
L 500 675 
L 1075 675 
L 1075 125 
z
" transform="scale(0.015625)"/>
       </defs>
       <use xlink:href="#SimHei-30"/>
       <use xlink:href="#SimHei-2e" transform="translate(50 0)"/>
       <use xlink:href="#SimHei-30" transform="translate(100 0)"/>
      </g>
     </g>
    </g>
    <g id="xtick_2">
     <g id="line2d_2">
      <g>
       <use xlink:href="#m5b43a4d000" x="143.081818" y="244.93" style="fill: #ffffff; stroke: #ffffff; stroke-width: 0.8"/>
      </g>
     </g>
     <g id="text_2">
      <!-- 0.2 -->
      <g style="fill: #ffffff" transform="translate(135.581818 258.805) scale(0.1 -0.1)">
       <defs>
        <path id="SimHei-32" d="M 300 250 
Q 325 625 650 925 
Q 975 1225 1475 1862 
Q 1975 2500 2125 2850 
Q 2275 3200 2237 3450 
Q 2200 3700 2000 3862 
Q 1800 4025 1537 4000 
Q 1275 3975 1037 3800 
Q 800 3625 675 3275 
L 200 3350 
Q 400 3925 712 4187 
Q 1025 4450 1450 4475 
Q 1700 4500 1900 4462 
Q 2100 4425 2312 4287 
Q 2525 4150 2662 3875 
Q 2800 3600 2762 3212 
Q 2725 2825 2375 2287 
Q 2025 1750 1025 600 
L 2825 600 
L 2825 150 
L 300 150 
L 300 250 
z
" transform="scale(0.015625)"/>
       </defs>
       <use xlink:href="#SimHei-30"/>
       <use xlink:href="#SimHei-2e" transform="translate(50 0)"/>
       <use xlink:href="#SimHei-32" transform="translate(100 0)"/>
      </g>
     </g>
    </g>
    <g id="xtick_3">
     <g id="line2d_3">
      <g>
       <use xlink:href="#m5b43a4d000" x="224.487273" y="244.93" style="fill: #ffffff; stroke: #ffffff; stroke-width: 0.8"/>
      </g>
     </g>
     <g id="text_3">
      <!-- 0.4 -->
      <g style="fill: #ffffff" transform="translate(216.987273 258.805) scale(0.1 -0.1)">
       <defs>
        <path id="SimHei-34" d="M 2000 1100 
L 75 1100 
L 75 1525 
L 2100 4450 
L 2475 4450 
L 2475 1525 
L 3075 1525 
L 3075 1100 
L 2475 1100 
L 2475 150 
L 2000 150 
L 2000 1100 
z
M 2000 1525 
L 2000 3500 
L 600 1525 
L 2000 1525 
z
" transform="scale(0.015625)"/>
       </defs>
       <use xlink:href="#SimHei-30"/>
       <use xlink:href="#SimHei-2e" transform="translate(50 0)"/>
       <use xlink:href="#SimHei-34" transform="translate(100 0)"/>
      </g>
     </g>
    </g>
    <g id="xtick_4">
     <g id="line2d_4">
      <g>
       <use xlink:href="#m5b43a4d000" x="305.892727" y="244.93" style="fill: #ffffff; stroke: #ffffff; stroke-width: 0.8"/>
      </g>
     </g>
     <g id="text_4">
      <!-- 0.6 -->
      <g style="fill: #ffffff" transform="translate(298.392727 258.805) scale(0.1 -0.1)">
       <defs>
        <path id="SimHei-36" d="M 250 1612 
Q 275 1975 387 2225 
Q 500 2475 725 2850 
L 1750 4450 
L 2325 4450 
L 1275 2800 
Q 1950 2975 2350 2750 
Q 2750 2525 2887 2237 
Q 3025 1950 3037 1612 
Q 3050 1275 2937 950 
Q 2825 625 2537 362 
Q 2250 100 1737 75 
Q 1225 50 862 262 
Q 500 475 362 862 
Q 225 1250 250 1612 
z
M 1025 787 
Q 1250 550 1625 525 
Q 2000 500 2250 775 
Q 2500 1050 2500 1575 
Q 2500 2100 2187 2300 
Q 1875 2500 1487 2450 
Q 1100 2400 925 2075 
Q 750 1750 775 1387 
Q 800 1025 1025 787 
z
" transform="scale(0.015625)"/>
       </defs>
       <use xlink:href="#SimHei-30"/>
       <use xlink:href="#SimHei-2e" transform="translate(50 0)"/>
       <use xlink:href="#SimHei-36" transform="translate(100 0)"/>
      </g>
     </g>
    </g>
    <g id="xtick_5">
     <g id="line2d_5">
      <g>
       <use xlink:href="#m5b43a4d000" x="387.298182" y="244.93" style="fill: #ffffff; stroke: #ffffff; stroke-width: 0.8"/>
      </g>
     </g>
     <g id="text_5">
      <!-- 0.8 -->
      <g style="fill: #ffffff" transform="translate(379.798182 258.805) scale(0.1 -0.1)">
       <defs>
        <path id="SimHei-38" d="M 175 1375 
Q 175 1675 325 1962 
Q 475 2250 825 2425 
Q 525 2600 425 2812 
Q 325 3025 312 3300 
Q 300 3575 387 3775 
Q 475 3975 650 4150 
Q 825 4325 1037 4387 
Q 1250 4450 1500 4450 
Q 1750 4450 1950 4400 
Q 2150 4350 2375 4187 
Q 2600 4025 2700 3725 
Q 2800 3425 2687 3025 
Q 2575 2625 2100 2400 
Q 2525 2275 2700 2012 
Q 2875 1750 2875 1375 
Q 2875 1000 2762 775 
Q 2650 550 2512 400 
Q 2375 250 2137 162 
Q 1900 75 1537 75 
Q 1175 75 912 162 
Q 650 250 475 425 
Q 300 600 237 837 
Q 175 1075 175 1375 
z
M 687 1400 
Q 675 1100 787 875 
Q 900 650 1200 587 
Q 1500 525 1825 600 
Q 2150 675 2275 950 
Q 2400 1225 2362 1500 
Q 2325 1775 2050 1962 
Q 1775 2150 1450 2125 
Q 1125 2100 912 1900 
Q 700 1700 687 1400 
z
M 775 3350 
Q 775 3100 950 2875 
Q 1125 2650 1500 2650 
Q 1875 2650 2062 2875 
Q 2250 3100 2237 3412 
Q 2225 3725 2012 3875 
Q 1800 4025 1437 4000 
Q 1075 3975 925 3787 
Q 775 3600 775 3350 
z
" transform="scale(0.015625)"/>
       </defs>
       <use xlink:href="#SimHei-30"/>
       <use xlink:href="#SimHei-2e" transform="translate(50 0)"/>
       <use xlink:href="#SimHei-38" transform="translate(100 0)"/>
      </g>
     </g>
    </g>
    <g id="xtick_6">
     <g id="line2d_6">
      <g>
       <use xlink:href="#m5b43a4d000" x="468.703636" y="244.93" style="fill: #ffffff; stroke: #ffffff; stroke-width: 0.8"/>
      </g>
     </g>
     <g id="text_6">
      <!-- 1.0 -->
      <g style="fill: #ffffff" transform="translate(461.203636 258.805) scale(0.1 -0.1)">
       <defs>
        <path id="SimHei-31" d="M 1400 3600 
Q 1075 3275 575 2975 
L 575 3450 
Q 1200 3875 1600 4450 
L 1900 4450 
L 1900 150 
L 1400 150 
L 1400 3600 
z
" transform="scale(0.015625)"/>
       </defs>
       <use xlink:href="#SimHei-31"/>
       <use xlink:href="#SimHei-2e" transform="translate(50 0)"/>
       <use xlink:href="#SimHei-30" transform="translate(100 0)"/>
      </g>
     </g>
    </g>
    <g id="text_7">
     <!-- Win Rate -->
     <g style="fill: #ffffff" transform="translate(245.19 270.93) scale(0.1 -0.1)">
      <defs>
       <path id="SimHei-57" d="M 3075 4400 
L 2525 75 
L 2025 75 
L 1575 3275 
L 1525 3275 
L 1075 75 
L 575 75 
L 25 4400 
L 575 4400 
L 850 1675 
L 900 1675 
L 1275 4400 
L 1825 4400 
L 2200 1675 
L 2250 1675 
L 2525 4400 
L 3075 4400 
z
" transform="scale(0.015625)"/>
       <path id="SimHei-69" d="M 1800 3725 
L 1300 3725 
L 1300 4375 
L 1800 4375 
L 1800 3725 
z
M 1800 125 
L 1300 125 
L 1300 2925 
L 1800 2925 
L 1800 125 
z
" transform="scale(0.015625)"/>
       <path id="SimHei-6e" d="M 2800 125 
L 2300 125 
L 2300 1925 
Q 2300 2225 2150 2400 
Q 2000 2575 1750 2575 
Q 1425 2575 1137 2237 
Q 850 1900 850 1400 
L 850 125 
L 350 125 
L 350 2925 
L 850 2925 
L 850 2400 
Q 1050 2675 1287 2825 
Q 1525 2975 1900 2975 
Q 2350 2975 2575 2725 
Q 2800 2475 2800 2100 
L 2800 125 
z
" transform="scale(0.015625)"/>
       <path id="SimHei-20" transform="scale(0.015625)"/>
       <path id="SimHei-52" d="M 3000 125 
L 2400 125 
L 1500 1975 
L 850 1975 
L 850 125 
L 275 125 
L 275 4400 
L 1525 4400 
Q 2125 4400 2500 4112 
Q 2875 3825 2875 3175 
Q 2875 2675 2625 2400 
Q 2375 2125 2050 2050 
L 3000 125 
z
M 2300 3175 
Q 2300 3525 2087 3725 
Q 1875 3925 1400 3925 
L 850 3925 
L 850 2450 
L 1550 2450 
Q 1850 2450 2075 2612 
Q 2300 2775 2300 3175 
z
" transform="scale(0.015625)"/>
       <path id="SimHei-61" d="M 2875 125 
L 2275 125 
Q 2225 175 2200 262 
Q 2175 350 2175 475 
Q 2000 275 1750 175 
Q 1500 75 1225 75 
Q 825 75 550 275 
Q 275 475 275 850 
Q 275 1225 525 1450 
Q 775 1675 1300 1750 
Q 1650 1800 1912 1875 
Q 2175 1950 2175 2075 
Q 2175 2225 2062 2375 
Q 1950 2525 1575 2525 
Q 1275 2525 1137 2412 
Q 1000 2300 950 2100 
L 400 2100 
Q 450 2500 762 2737 
Q 1075 2975 1575 2975 
Q 2125 2975 2400 2725 
Q 2675 2475 2675 2025 
L 2675 650 
Q 2675 500 2725 375 
Q 2775 250 2875 125 
z
M 2175 1050 
L 2175 1550 
Q 2025 1500 1887 1462 
Q 1750 1425 1425 1375 
Q 1050 1325 937 1200 
Q 825 1075 825 900 
Q 825 750 937 637 
Q 1050 525 1275 525 
Q 1500 525 1762 650 
Q 2025 775 2175 1050 
z
" transform="scale(0.015625)"/>
       <path id="SimHei-74" d="M 2750 200 
Q 2625 150 2462 112 
Q 2300 75 2025 75 
Q 1575 75 1300 325 
Q 1025 575 1025 1025 
L 1025 2525 
L 175 2525 
L 175 2925 
L 1025 2925 
L 1025 3900 
L 1525 3900 
L 1525 2925 
L 2550 2925 
L 2550 2525 
L 1525 2525 
L 1525 1000 
Q 1525 800 1625 662 
Q 1725 525 2000 525 
Q 2275 525 2450 575 
Q 2625 625 2750 700 
L 2750 200 
z
" transform="scale(0.015625)"/>
       <path id="SimHei-65" d="M 2850 1075 
Q 2800 625 2450 350 
Q 2100 75 1625 75 
Q 1025 75 637 462 
Q 250 850 250 1525 
Q 250 2200 637 2587 
Q 1025 2975 1625 2975 
Q 2150 2975 2487 2637 
Q 2825 2300 2825 1525 
L 800 1525 
Q 800 975 1037 750 
Q 1275 525 1625 525 
Q 1900 525 2075 662 
Q 2250 800 2300 1075 
L 2850 1075 
z
M 2250 1925 
Q 2200 2275 2025 2412 
Q 1850 2550 1575 2550 
Q 1325 2550 1125 2412 
Q 925 2275 825 1925 
L 2250 1925 
z
" transform="scale(0.015625)"/>
      </defs>
      <use xlink:href="#SimHei-57"/>
      <use xlink:href="#SimHei-69" transform="translate(50 0)"/>
      <use xlink:href="#SimHei-6e" transform="translate(100 0)"/>
      <use xlink:href="#SimHei-20" transform="translate(150 0)"/>
      <use xlink:href="#SimHei-52" transform="translate(200 0)"/>
      <use xlink:href="#SimHei-61" transform="translate(250 0)"/>
      <use xlink:href="#SimHei-74" transform="translate(300 0)"/>
      <use xlink:href="#SimHei-65" transform="translate(350 0)"/>
     </g>
    </g>
   </g>
   <g id="matplotlib.axis_2">
    <g id="ytick_1">
     <g id="line2d_7">
      <defs>
       <path id="m1995fcc761" d="M 0 0 
L -3.5 0 
" style="stroke: #ffffff; stroke-width: 0.8"/>
      </defs>
      <g>
       <use xlink:href="#m1995fcc761" x="41.325" y="244.93" style="fill: #ffffff; stroke: #ffffff; stroke-width: 0.8"/>
      </g>
     </g>
     <g id="text_8">
      <!-- 0.0 -->
      <g style="fill: #ffffff" transform="translate(19.325 248.3675) scale(0.1 -0.1)">
       <use xlink:href="#SimHei-30"/>
       <use xlink:href="#SimHei-2e" transform="translate(50 0)"/>
       <use xlink:href="#SimHei-30" transform="translate(100 0)"/>
      </g>
     </g>
    </g>
    <g id="ytick_2">
     <g id="line2d_8">
      <g>
       <use xlink:href="#m1995fcc761" x="41.325" y="216.759367" style="fill: #ffffff; stroke: #ffffff; stroke-width: 0.8"/>
      </g>
     </g>
     <g id="text_9">
      <!-- 0.2 -->
      <g style="fill: #ffffff" transform="translate(19.325 220.196867) scale(0.1 -0.1)">
       <use xlink:href="#SimHei-30"/>
       <use xlink:href="#SimHei-2e" transform="translate(50 0)"/>
       <use xlink:href="#SimHei-32" transform="translate(100 0)"/>
      </g>
     </g>
    </g>
    <g id="ytick_3">
     <g id="line2d_9">
      <g>
       <use xlink:href="#m1995fcc761" x="41.325" y="188.588733" style="fill: #ffffff; stroke: #ffffff; stroke-width: 0.8"/>
      </g>
     </g>
     <g id="text_10">
      <!-- 0.4 -->
      <g style="fill: #ffffff" transform="translate(19.325 192.026233) scale(0.1 -0.1)">
       <use xlink:href="#SimHei-30"/>
       <use xlink:href="#SimHei-2e" transform="translate(50 0)"/>
       <use xlink:href="#SimHei-34" transform="translate(100 0)"/>
      </g>
     </g>
    </g>
    <g id="ytick_4">
     <g id="line2d_10">
      <g>
       <use xlink:href="#m1995fcc761" x="41.325" y="160.4181" style="fill: #ffffff; stroke: #ffffff; stroke-width: 0.8"/>
      </g>
     </g>
     <g id="text_11">
      <!-- 0.6 -->
      <g style="fill: #ffffff" transform="translate(19.325 163.8556) scale(0.1 -0.1)">
       <use xlink:href="#SimHei-30"/>
       <use xlink:href="#SimHei-2e" transform="translate(50 0)"/>
       <use xlink:href="#SimHei-36" transform="translate(100 0)"/>
      </g>
     </g>
    </g>
    <g id="ytick_5">
     <g id="line2d_11">
      <g>
       <use xlink:href="#m1995fcc761" x="41.325" y="132.247467" style="fill: #ffffff; stroke: #ffffff; stroke-width: 0.8"/>
      </g>
     </g>
     <g id="text_12">
      <!-- 0.8 -->
      <g style="fill: #ffffff" transform="translate(19.325 135.684967) scale(0.1 -0.1)">
       <use xlink:href="#SimHei-30"/>
       <use xlink:href="#SimHei-2e" transform="translate(50 0)"/>
       <use xlink:href="#SimHei-38" transform="translate(100 0)"/>
      </g>
     </g>
    </g>
    <g id="ytick_6">
     <g id="line2d_12">
      <g>
       <use xlink:href="#m1995fcc761" x="41.325" y="104.076834" style="fill: #ffffff; stroke: #ffffff; stroke-width: 0.8"/>
      </g>
     </g>
     <g id="text_13">
      <!-- 1.0 -->
      <g style="fill: #ffffff" transform="translate(19.325 107.514334) scale(0.1 -0.1)">
       <use xlink:href="#SimHei-31"/>
       <use xlink:href="#SimHei-2e" transform="translate(50 0)"/>
       <use xlink:href="#SimHei-30" transform="translate(100 0)"/>
      </g>
     </g>
    </g>
    <g id="ytick_7">
     <g id="line2d_13">
      <g>
       <use xlink:href="#m1995fcc761" x="41.325" y="75.9062" style="fill: #ffffff; stroke: #ffffff; stroke-width: 0.8"/>
      </g>
     </g>
     <g id="text_14">
      <!-- 1.2 -->
      <g style="fill: #ffffff" transform="translate(19.325 79.3437) scale(0.1 -0.1)">
       <use xlink:href="#SimHei-31"/>
       <use xlink:href="#SimHei-2e" transform="translate(50 0)"/>
       <use xlink:href="#SimHei-32" transform="translate(100 0)"/>
      </g>
     </g>
    </g>
    <g id="ytick_8">
     <g id="line2d_14">
      <g>
       <use xlink:href="#m1995fcc761" x="41.325" y="47.735567" style="fill: #ffffff; stroke: #ffffff; stroke-width: 0.8"/>
      </g>
     </g>
     <g id="text_15">
      <!-- 1.4 -->
      <g style="fill: #ffffff" transform="translate(19.325 51.173067) scale(0.1 -0.1)">
       <use xlink:href="#SimHei-31"/>
       <use xlink:href="#SimHei-2e" transform="translate(50 0)"/>
       <use xlink:href="#SimHei-34" transform="translate(100 0)"/>
      </g>
     </g>
    </g>
    <g id="text_16">
     <!-- Density -->
     <g style="fill: #ffffff" transform="translate(14.075 150.69) rotate(-90) scale(0.1 -0.1)">
      <defs>
       <path id="SimHei-44" d="M 2925 2250 
Q 2925 1100 2437 612 
Q 1950 125 1125 125 
L 275 125 
L 275 4400 
L 1125 4400 
Q 2050 4400 2487 3900 
Q 2925 3400 2925 2250 
z
M 2325 2250 
Q 2325 3175 2025 3550 
Q 1725 3925 1125 3925 
L 850 3925 
L 850 600 
L 1125 600 
Q 1725 600 2025 962 
Q 2325 1325 2325 2250 
z
" transform="scale(0.015625)"/>
       <path id="SimHei-73" d="M 2750 900 
Q 2750 500 2437 287 
Q 2125 75 1650 75 
Q 1050 75 725 312 
Q 400 550 400 1000 
L 900 1000 
Q 900 700 1112 600 
Q 1325 500 1625 500 
Q 1925 500 2075 612 
Q 2225 725 2225 900 
Q 2225 1025 2100 1150 
Q 1975 1275 1475 1350 
Q 900 1425 687 1637 
Q 475 1850 475 2200 
Q 475 2500 762 2737 
Q 1050 2975 1600 2975 
Q 2100 2975 2387 2750 
Q 2675 2525 2675 2150 
L 2175 2150 
Q 2175 2375 2012 2462 
Q 1850 2550 1600 2550 
Q 1275 2550 1137 2437 
Q 1000 2325 1000 2175 
Q 1000 2000 1125 1900 
Q 1250 1800 1650 1750 
Q 2300 1650 2525 1437 
Q 2750 1225 2750 900 
z
" transform="scale(0.015625)"/>
       <path id="SimHei-79" d="M 2900 2925 
L 1750 -100 
Q 1650 -450 1450 -625 
Q 1250 -800 950 -800 
Q 825 -800 712 -787 
Q 600 -775 500 -725 
L 500 -225 
Q 600 -275 700 -300 
Q 800 -325 875 -325 
Q 1075 -325 1150 -262 
Q 1225 -200 1300 25 
L 200 2925 
L 750 2925 
L 1550 725 
L 1575 725 
L 2350 2925 
L 2900 2925 
z
" transform="scale(0.015625)"/>
      </defs>
      <use xlink:href="#SimHei-44"/>
      <use xlink:href="#SimHei-65" transform="translate(50 0)"/>
      <use xlink:href="#SimHei-6e" transform="translate(100 0)"/>
      <use xlink:href="#SimHei-73" transform="translate(150 0)"/>
      <use xlink:href="#SimHei-69" transform="translate(200 0)"/>
      <use xlink:href="#SimHei-74" transform="translate(250 0)"/>
      <use xlink:href="#SimHei-79" transform="translate(300 0)"/>
     </g>
    </g>
   </g>
   <g id="text_17">
    <!-- Host vs. Non-Host Win-Rate Distribution -->
    <g style="fill: #ffffff" transform="translate(148.19 15.45) scale(0.12 -0.12)">
     <defs>
      <path id="SimHei-48" d="M 2850 125 
L 2275 125 
L 2275 2125 
L 850 2125 
L 850 125 
L 275 125 
L 275 4400 
L 850 4400 
L 850 2600 
L 2275 2600 
L 2275 4400 
L 2850 4400 
L 2850 125 
z
" transform="scale(0.015625)"/>
      <path id="SimHei-6f" d="M 2925 1525 
Q 2925 875 2525 475 
Q 2125 75 1575 75 
Q 1025 75 625 475 
Q 225 875 225 1525 
Q 225 2175 625 2575 
Q 1025 2975 1575 2975 
Q 2125 2975 2525 2575 
Q 2925 2175 2925 1525 
z
M 2375 1525 
Q 2375 2025 2125 2275 
Q 1875 2525 1575 2525 
Q 1275 2525 1025 2275 
Q 775 2025 775 1525 
Q 775 1025 1025 775 
Q 1275 525 1575 525 
Q 1875 525 2125 775 
Q 2375 1025 2375 1525 
z
" transform="scale(0.015625)"/>
      <path id="SimHei-76" d="M 2875 2925 
L 1825 75 
L 1275 75 
L 225 2925 
L 750 2925 
L 1525 750 
L 1575 750 
L 2350 2925 
L 2875 2925 
z
" transform="scale(0.015625)"/>
      <path id="SimHei-4e" d="M 2850 125 
L 2225 125 
L 850 3225 
L 825 3225 
L 825 125 
L 250 125 
L 250 4400 
L 875 4400 
L 2250 1300 
L 2275 1300 
L 2275 4400 
L 2850 4400 
L 2850 125 
z
" transform="scale(0.015625)"/>
      <path id="SimHei-2d" d="M 2975 2125 
L 125 2125 
L 125 2525 
L 2975 2525 
L 2975 2125 
z
" transform="scale(0.015625)"/>
      <path id="SimHei-72" d="M 2500 2425 
Q 2025 2500 1700 2287 
Q 1375 2075 1150 1550 
L 1150 125 
L 650 125 
L 650 2925 
L 1150 2925 
L 1150 2200 
Q 1375 2600 1712 2787 
Q 2050 2975 2500 2975 
L 2500 2425 
z
" transform="scale(0.015625)"/>
      <path id="SimHei-62" d="M 2825 1525 
Q 2825 800 2475 437 
Q 2125 75 1625 75 
Q 1350 75 1150 175 
Q 950 275 800 500 
L 800 125 
L 300 125 
L 300 4400 
L 800 4400 
L 800 2550 
Q 950 2775 1150 2887 
Q 1350 3000 1625 3000 
Q 2125 3000 2475 2625 
Q 2825 2250 2825 1525 
z
M 2275 1525 
Q 2275 2000 2087 2275 
Q 1900 2550 1525 2550 
Q 1225 2550 1012 2275 
Q 800 2000 800 1525 
Q 800 1050 1012 787 
Q 1225 525 1525 525 
Q 1900 525 2087 787 
Q 2275 1050 2275 1525 
z
" transform="scale(0.015625)"/>
      <path id="SimHei-75" d="M 2800 125 
L 2300 125 
L 2300 650 
Q 2100 375 1862 225 
Q 1625 75 1250 75 
Q 800 75 575 325 
Q 350 575 350 950 
L 350 2925 
L 850 2925 
L 850 1125 
Q 850 825 1000 650 
Q 1150 475 1400 475 
Q 1725 475 2012 812 
Q 2300 1150 2300 1650 
L 2300 2925 
L 2800 2925 
L 2800 125 
z
" transform="scale(0.015625)"/>
     </defs>
     <use xlink:href="#SimHei-48"/>
     <use xlink:href="#SimHei-6f" transform="translate(50 0)"/>
     <use xlink:href="#SimHei-73" transform="translate(100 0)"/>
     <use xlink:href="#SimHei-74" transform="translate(150 0)"/>
     <use xlink:href="#SimHei-20" transform="translate(200 0)"/>
     <use xlink:href="#SimHei-76" transform="translate(250 0)"/>
     <use xlink:href="#SimHei-73" transform="translate(300 0)"/>
     <use xlink:href="#SimHei-2e" transform="translate(350 0)"/>
     <use xlink:href="#SimHei-20" transform="translate(400 0)"/>
     <use xlink:href="#SimHei-4e" transform="translate(450 0)"/>
     <use xlink:href="#SimHei-6f" transform="translate(500 0)"/>
     <use xlink:href="#SimHei-6e" transform="translate(550 0)"/>
     <use xlink:href="#SimHei-2d" transform="translate(600 0)"/>
     <use xlink:href="#SimHei-48" transform="translate(650 0)"/>
     <use xlink:href="#SimHei-6f" transform="translate(700 0)"/>
     <use xlink:href="#SimHei-73" transform="translate(750 0)"/>
     <use xlink:href="#SimHei-74" transform="translate(800 0)"/>
     <use xlink:href="#SimHei-20" transform="translate(850 0)"/>
     <use xlink:href="#SimHei-57" transform="translate(900 0)"/>
     <use xlink:href="#SimHei-69" transform="translate(950 0)"/>
     <use xlink:href="#SimHei-6e" transform="translate(1000 0)"/>
     <use xlink:href="#SimHei-2d" transform="translate(1050 0)"/>
     <use xlink:href="#SimHei-52" transform="translate(1100 0)"/>
     <use xlink:href="#SimHei-61" transform="translate(1150 0)"/>
     <use xlink:href="#SimHei-74" transform="translate(1200 0)"/>
     <use xlink:href="#SimHei-65" transform="translate(1250 0)"/>
     <use xlink:href="#SimHei-20" transform="translate(1300 0)"/>
     <use xlink:href="#SimHei-44" transform="translate(1350 0)"/>
     <use xlink:href="#SimHei-69" transform="translate(1400 0)"/>
     <use xlink:href="#SimHei-73" transform="translate(1450 0)"/>
     <use xlink:href="#SimHei-74" transform="translate(1500 0)"/>
     <use xlink:href="#SimHei-72" transform="translate(1550 0)"/>
     <use xlink:href="#SimHei-69" transform="translate(1600 0)"/>
     <use xlink:href="#SimHei-62" transform="translate(1650 0)"/>
     <use xlink:href="#SimHei-75" transform="translate(1700 0)"/>
     <use xlink:href="#SimHei-74" transform="translate(1750 0)"/>
     <use xlink:href="#SimHei-69" transform="translate(1800 0)"/>
     <use xlink:href="#SimHei-6f" transform="translate(1850 0)"/>
     <use xlink:href="#SimHei-6e" transform="translate(1900 0)"/>
    </g>
   </g>
   <g id="legend_1">
    <g id="patch_3">
     <path d="M 48.325 55.95 
L 120.325 55.95 
Q 122.325 55.95 122.325 53.95 
L 122.325 28.45 
Q 122.325 26.45 120.325 26.45 
L 48.325 26.45 
Q 46.325 26.45 46.325 28.45 
L 46.325 53.95 
Q 46.325 55.95 48.325 55.95 
L 48.325 55.95 
z
" style="fill: none; opacity: 0.8"/>
    </g>
    <g id="patch_4">
     <path d="M 50.325 37.45 
L 70.325 37.45 
L 70.325 30.45 
L 50.325 30.45 
z
" style="fill: #1f77b4; fill-opacity: 0.45; stroke: #1f77b4; stroke-width: 1.8; stroke-linejoin: miter"/>
    </g>
    <g id="text_18">
     <!-- Host -->
     <g style="fill: #ffffff" transform="translate(78.325 37.45) scale(0.1 -0.1)">
      <use xlink:href="#SimHei-48"/>
      <use xlink:href="#SimHei-6f" transform="translate(50 0)"/>
      <use xlink:href="#SimHei-73" transform="translate(100 0)"/>
      <use xlink:href="#SimHei-74" transform="translate(150 0)"/>
     </g>
    </g>
    <g id="patch_5">
     <path d="M 50.325 50.7 
L 70.325 50.7 
L 70.325 43.7 
L 50.325 43.7 
z
" style="fill: #ff7f0e; fill-opacity: 0.45; stroke: #ff7f0e; stroke-width: 1.8; stroke-linejoin: miter"/>
    </g>
    <g id="text_19">
     <!-- Non-Host -->
     <g style="fill: #ffffff" transform="translate(78.325 50.7) scale(0.1 -0.1)">
      <use xlink:href="#SimHei-4e"/>
      <use xlink:href="#SimHei-6f" transform="translate(50 0)"/>
      <use xlink:href="#SimHei-6e" transform="translate(100 0)"/>
      <use xlink:href="#SimHei-2d" transform="translate(150 0)"/>
      <use xlink:href="#SimHei-48" transform="translate(200 0)"/>
      <use xlink:href="#SimHei-6f" transform="translate(250 0)"/>
      <use xlink:href="#SimHei-73" transform="translate(300 0)"/>
      <use xlink:href="#SimHei-74" transform="translate(350 0)"/>
     </g>
    </g>
   </g>
  </g>
 </g>
 <defs>
  <clipPath id="p3e0692cc33">
   <rect x="41.325" y="21.45" width="447.73" height="223.48"/>
  </clipPath>
 </defs>
</svg>
